<svg width="27" height="25" viewBox="0 0 27 25" fill="none" xmlns="http://www.w3.org/2000/svg">
<path d="M21.1389 10.0145C21.1389 8.15413 20.3341 6.36997 18.9015 5.0545C17.4689 3.73902 15.526 3 13.5 3C11.474 3 9.53106 3.73902 8.09849 5.0545C6.66592 6.36997 5.86111 8.15413 5.86111 10.0145C5.86111 15.9375 3.31471 18.7984 1.90788 19.927C1.70049 20.0934 1.83062 20.5362 2.09651 20.5362H8.84571C8.96185 20.5362 9.06296 20.6142 9.09843 20.7248C9.33017 21.4474 10.3702 24 13.5 24C16.6298 24 17.6698 21.4474 17.9016 20.7248C17.937 20.6142 18.0382 20.5362 18.1543 20.5362H24.9035C25.1694 20.5362 25.2995 20.0934 25.0921 19.927C23.6853 18.7984 21.1389 15.9375 21.1389 10.0145Z" stroke="#F8F8F8" stroke-width="2"/>
<path d="M22.9206 4.5C22.9206 6.50225 21.22 8.18182 19.0513 8.18182C16.8825 8.18182 15.182 6.50225 15.182 4.5C15.182 2.49775 16.8825 0.818182 19.0513 0.818182C21.22 0.818182 22.9206 2.49775 22.9206 4.5Z" fill="#FD0025" stroke="#313141" stroke-width="1.63636"/>
</svg>
