<svg width="17" height="17" viewBox="0 0 17 17" fill="none" xmlns="http://www.w3.org/2000/svg">
<path fill-rule="evenodd" clip-rule="evenodd" d="M16.5711 16.0992L15.6348 12.6326C15.5811 12.4383 15.6079 12.2287 15.7 12.0459C16.5174 10.4192 16.7899 8.47636 16.2872 6.4497C15.6041 3.70684 13.4475 1.50494 10.6922 0.777317C9.94011 0.583031 9.19949 0.487793 8.4819 0.487793C3.33212 0.487793 -0.689461 5.28398 0.699675 10.6211C1.34436 13.0897 3.99983 15.6459 6.49797 16.2478C7.17335 16.4116 7.83722 16.4878 8.4819 16.4878C9.8672 16.4878 11.1642 16.1335 12.3039 15.524C12.4306 15.4554 12.5726 15.4173 12.7107 15.4173C12.7798 15.4173 12.8489 15.4249 12.9179 15.444L16.3179 16.3468C16.337 16.3507 16.3562 16.3545 16.3716 16.3545C16.502 16.3545 16.6057 16.2326 16.5711 16.0992ZM14.5603 12.9183L15.0899 14.8802L13.2057 14.3811C13.0446 14.3392 12.8796 14.3164 12.7107 14.3164C12.3884 14.3164 12.0622 14.4002 11.7705 14.5564C10.746 15.1049 9.64079 15.383 8.4819 15.383C7.91013 15.383 7.33069 15.3106 6.75891 15.1735C4.64451 14.663 2.31522 12.4078 1.77798 10.343C1.21772 8.18684 1.65902 5.97351 2.98676 4.27065C4.3145 2.56779 6.31761 1.59255 8.4819 1.59255C9.11891 1.59255 9.76743 1.67636 10.4083 1.84779C12.7759 2.47255 14.6141 4.33922 15.2088 6.71636C15.6271 8.39256 15.4544 10.0649 14.7061 11.5545C14.4913 11.9811 14.4375 12.4649 14.5603 12.9183Z" fill="white"/>
</svg>
