<svg width="35" height="35" viewBox="0 0 35 35" fill="none" xmlns="http://www.w3.org/2000/svg">
<path d="M9.2688 31.8032C11.6915 33.2005 14.5025 33.9999 17.5002 33.9999C26.613 33.9999 34 26.6127 34 17.5C34 8.3873 26.6127 1 17.5 1C8.3873 1 1 8.3873 1 17.5C1 20.4977 1.79941 23.3087 3.19669 25.7315L3.19784 25.7335C3.33512 25.9715 3.40393 26.0908 3.43496 26.203C3.46392 26.3078 3.47349 26.4013 3.46607 26.5098C3.4582 26.6249 3.41843 26.7442 3.33986 26.9799L3.33692 26.9887L1.92741 31.2172L1.92631 31.2206C1.62848 32.114 1.4795 32.561 1.58556 32.8584C1.67798 33.1176 1.88219 33.3216 2.14136 33.414C2.43917 33.5202 2.88747 33.371 3.78312 33.0724L8.01165 31.6629L8.01448 31.662C8.25412 31.5821 8.37388 31.5422 8.48994 31.5342C8.5984 31.5268 8.69226 31.5362 8.79704 31.5651C8.90962 31.5962 9.02945 31.6652 9.2688 31.8032Z" fill="white" stroke="white" stroke-width="2" stroke-linecap="round" stroke-linejoin="round"/>
</svg>
