<svg width="22" height="19" viewBox="0 0 22 19" fill="none" xmlns="http://www.w3.org/2000/svg">
<path d="M8.80219 3.88063C8.86273 3.46264 8.53777 3.10416 8.13221 3.10416H6.72601C6.1113 3.10416 5.64712 3.54772 5.417 3.91591L5.41699 3.9159L5.41588 3.91772L1.27598 10.6627L1.23728 10.7258V10.7997V17.0138C1.23728 17.8667 1.92592 18.5617 2.78106 18.5617H20.1289C20.984 18.5617 21.6726 17.8667 21.6726 17.0138V10.7997V10.7257L21.6339 10.6626L17.4898 3.91762L17.4898 3.91761L17.4888 3.91591C17.2587 3.54776 16.7945 3.10416 16.1798 3.10416H14.786C14.4604 3.10416 14.153 3.3375 14.1036 3.68112M8.80219 3.88063C8.75287 4.22437 8.44535 4.45781 8.11976 4.45781H6.74462C6.73486 4.46219 6.71849 4.47146 6.69739 4.48792C6.65456 4.52135 6.60809 4.57203 6.57218 4.6309L6.57176 4.63159L2.92169 10.575H7.6345C8.1627 10.575 8.61542 10.9877 8.72068 11.5098L8.94435 12.5578L8.94538 12.5626L8.94533 12.5626C8.94983 12.5858 8.95719 12.5957 8.96194 12.6009C8.96817 12.6079 8.97944 12.6167 8.99957 12.6254C9.04445 12.6447 9.10043 12.6492 9.13198 12.6492H13.778C13.8341 12.6492 13.8915 12.6411 13.9304 12.6237C13.9476 12.616 13.9547 12.6094 13.9571 12.6066L13.9572 12.6065C13.9584 12.6052 13.962 12.6012 13.9646 12.5878L13.9649 12.5862L14.1889 11.462L14.1893 11.4598C14.2976 10.9403 14.7529 10.5709 15.2796 10.5709H19.9921L16.3392 4.62917C16.339 4.62893 16.3389 4.62869 16.3387 4.62844C16.303 4.57141 16.2566 4.52145 16.2135 4.48817C16.1921 4.47166 16.1755 4.46231 16.1656 4.45788C16.1655 4.45785 16.1655 4.45783 16.1654 4.45781H14.7735C14.3679 4.45781 14.0429 4.09921 14.1036 3.68112M8.80219 3.88063C8.80218 3.8807 8.80217 3.88077 8.80215 3.88085L8.54288 3.84321L8.80224 3.88027C8.80222 3.88039 8.8022 3.88051 8.80219 3.88063ZM14.1036 3.68112L14.3628 3.71876L14.1035 3.6817C14.1035 3.6815 14.1035 3.68131 14.1036 3.68112ZM20.319 17.0138C20.319 17.1166 20.2338 17.2054 20.1262 17.2081H2.78106C2.67994 17.2081 2.59089 17.1211 2.59089 17.0138V11.9244L7.42496 11.9206L7.61855 12.8276C7.76272 13.5395 8.38365 13.9987 9.13198 13.9987H13.778C14.5322 13.9987 15.1505 13.5618 15.2915 12.848L15.491 11.9246H20.319V17.0138Z" fill="white" stroke="white" stroke-width="0.523984"/>
<ellipse cx="11.564" cy="2.84215" rx="2.72908" ry="2.61992" fill="#FD0025"/>
</svg>
