<?xml version="1.0" standalone="no"?>
<!DOCTYPE svg PUBLIC "-//W3C//DTD SVG 20010904//EN"
 "http://www.w3.org/TR/2001/REC-SVG-20010904/DTD/svg10.dtd">
<svg version="1.0" xmlns="http://www.w3.org/2000/svg"
 width="22.000000pt" height="22.000000pt" viewBox="0 0 512.000000 512.000000"
 preserveAspectRatio="xMidYMid meet">

<g transform="translate(0.000000,512.000000) scale(0.100000,-0.100000)"
fill="#DAA328" stroke="none">
<path d="M2285 4675 c-708 -93 -1326 -538 -1640 -1180 -289 -592 -289 -1278 0
-1870 323 -661 956 -1104 1694 -1185 170 -19 442 -8 614 24 755 143 1380 685
1626 1413 149 439 149 927 0 1366 -265 782 -964 1345 -1784 1437 -122 13 -387
11 -510 -5z m414 -415 c843 -75 1493 -730 1561 -1575 50 -606 -252 -1217 -765
-1551 -579 -376 -1314 -372 -1885 12 -576 386 -861 1085 -720 1761 138 662
662 1185 1326 1324 170 35 313 44 483 29z"/>
<path d="M2510 3621 c-74 -24 -119 -63 -145 -123 -23 -56 -23 -1180 0 -1236
64 -152 273 -172 370 -34 l30 44 3 586 c2 399 0 599 -8 624 -28 97 -158 169
-250 139z"/>
<path d="M2486 1905 c-80 -28 -136 -110 -136 -200 0 -122 86 -205 213 -205
110 0 196 77 205 185 13 160 -132 274 -282 220z"/>
</g>
</svg>
