<?xml version="1.0" standalone="no"?>
<!DOCTYPE svg PUBLIC "-//W3C//DTD SVG 20010904//EN"
 "http://www.w3.org/TR/2001/REC-SVG-20010904/DTD/svg10.dtd">
<svg version="1.0" xmlns="http://www.w3.org/2000/svg"
 width="512.000000pt" height="512.000000pt" viewBox="0 0 512.000000 512.000000"
 preserveAspectRatio="xMidYMid meet">

<g transform="translate(0.000000,512.000000) scale(0.100000,-0.100000)"
fill="#DAA328" stroke="none">
<path d="M2285 4675 c-708 -93 -1326 -538 -1640 -1180 -289 -592 -289 -1278 0
-1870 323 -661 956 -1104 1694 -1185 170 -19 442 -8 614 24 755 143 1380 685
1626 1413 149 439 149 927 0 1366 -265 782 -964 1345 -1784 1437 -122 13 -387
11 -510 -5z m374 -1074 c48 -25 87 -71 101 -119 8 -25 10 -225 8 -624 l-3
-586 -30 -44 c-97 -138 -306 -118 -370 34 -23 56 -23 1180 0 1236 48 114 181
160 294 103z m-36 -1692 c52 -14 112 -71 133 -124 53 -140 -45 -285 -193 -285
-127 0 -213 83 -213 205 0 146 131 244 273 204z"/>
</g>
</svg>
