<svg width="18" height="17" viewBox="0 0 18 17" fill="none" xmlns="http://www.w3.org/2000/svg">
<path d="M8.99942 16.2569C8.66226 16.2569 8.34043 16.1508 8.0684 15.95C6.2217 14.5894 1.808 11.2051 0.700743 9.15484C-0.747503 6.47546 0.122211 3.03432 2.63557 1.48429C3.44781 0.984036 4.36733 0.71875 5.30218 0.71875C6.70062 0.71875 8.01476 1.28722 8.99942 2.2991C9.98407 1.28722 11.2982 0.71875 12.6967 0.71875C13.6315 0.71875 14.551 0.984036 15.3633 1.48429C17.8766 3.03432 18.7463 6.47546 17.3019 9.15484C16.1947 11.2051 11.781 14.5894 9.93427 15.95C9.65841 16.1508 9.33658 16.2569 8.99942 16.2569ZM5.30218 1.85569C4.58189 1.85569 3.87309 2.06034 3.24475 2.4469C1.2333 3.68995 0.543658 6.45651 1.71222 8.61669C2.73901 10.5192 7.35961 14.0134 8.75038 15.0366C8.89597 15.1427 9.09903 15.1427 9.24462 15.0366C10.6354 14.0096 15.256 10.5154 16.2828 8.61669C17.4513 6.45651 16.7617 3.68616 14.7503 2.4469C14.1257 2.06034 13.417 1.85569 12.6967 1.85569C11.4361 1.85569 10.2561 2.46206 9.45918 3.51562L8.99942 4.12957L8.53966 3.51562C7.74274 2.46206 6.56652 1.85569 5.30218 1.85569Z" fill="white"/>
</svg>
