<svg width="38" height="35" viewBox="0 0 38 35" fill="none" xmlns="http://www.w3.org/2000/svg">
<path d="M17.0611 32.818C18.0718 33.5395 19.4282 33.5395 20.4389 32.818C25.4905 29.2118 30.3281 25.063 33.6744 19.7538C35.3509 17.0939 36.0537 14.9429 36.3301 13.184C36.4416 12.5647 36.5 11.9257 36.5 11.2725C36.5 5.59918 32.097 1 26.6655 1C23.4197 1 20.5411 2.64254 18.75 5.17528C16.9589 2.64254 14.0803 1 10.8345 1C5.40304 1 1 5.59918 1 11.2725C1 11.9257 1.05836 12.5647 1.16994 13.184C1.44634 14.9429 2.14906 17.0939 3.82555 19.7538C7.17194 25.063 12.0095 29.2118 17.0611 32.818Z" fill="white" stroke="white" stroke-width="2"/>
<path d="M17.0611 28.5C18.0718 29.2216 19.4282 29.2216 20.4389 28.5C26 25.5 28 24.5 33.6744 19.7538C35.3509 17.0939 36.0537 14.9429 36.3301 13.184C36.4416 12.5647 36.5 11.9257 36.5 11.2725C36.5 5.59918 32.097 1 26.6655 1C23.4197 1 20.5411 2.64254 18.75 5.17528C16.9589 2.64254 14.0803 1 10.8345 1C5.40304 1 1 5.59918 1 11.2725C1 11.9257 1.05836 12.5647 1.16994 13.184C1.44634 14.9429 2.14906 17.0939 3.82555 19.7538C10 24.5 12 25.5 17.0611 28.5Z" fill="white"/>
</svg>
