<svg width="20" height="22" viewBox="0 0 20 22" fill="none" xmlns="http://www.w3.org/2000/svg">
<path d="M17.5 7.1142H16.25V5.1142C16.25 2.3542 13.45 0.114197 10 0.114197C6.55 0.114197 3.75 2.3542 3.75 5.1142V7.1142H2.5C1.125 7.1142 0 8.0142 0 9.1142V19.1142C0 20.2142 1.125 21.1142 2.5 21.1142H17.5C18.875 21.1142 20 20.2142 20 19.1142V9.1142C20 8.0142 18.875 7.1142 17.5 7.1142ZM10 16.1142C8.625 16.1142 7.5 15.2142 7.5 14.1142C7.5 13.0142 8.625 12.1142 10 12.1142C11.375 12.1142 12.5 13.0142 12.5 14.1142C12.5 15.2142 11.375 16.1142 10 16.1142ZM13.875 7.1142H6.125V5.1142C6.125 3.4042 7.8625 2.0142 10 2.0142C12.1375 2.0142 13.875 3.4042 13.875 5.1142V7.1142Z" fill="white"/>
</svg>
