<svg width="201" height="40" viewBox="0 0 201 40" fill="none" xmlns="http://www.w3.org/2000/svg">
<path d="M68.0017 32.1882C66.6611 32.1882 65.4708 31.8762 64.4308 31.2521C63.3907 30.6281 62.5818 29.7845 62.0039 28.7213C61.4261 27.6581 61.1372 26.4794 61.1372 25.1851V13.571C61.1372 13.0394 61.0101 12.5656 60.7559 12.1496C60.5016 11.7104 60.1549 11.3638 59.7158 11.1095C59.2998 10.8553 58.8375 10.7282 58.329 10.7282C57.8206 10.7282 57.3583 10.8553 56.9423 11.1095C56.5263 11.3638 56.1911 11.7104 55.9369 12.1496C55.6826 12.5656 55.5555 13.0394 55.5555 13.571V31.7722H51.4299V14.091C51.4299 12.7736 51.7188 11.5949 52.2967 10.5548C52.8745 9.49163 53.6834 8.64802 54.7235 8.02398C55.7635 7.39994 56.9654 7.08792 58.329 7.08792C59.7158 7.08792 60.9292 7.39994 61.9693 8.02398C63.0093 8.64802 63.8183 9.49163 64.3961 10.5548C64.9739 11.5949 65.2628 12.7736 65.2628 14.091V25.7051C65.2628 26.2367 65.3899 26.7221 65.6442 27.1612C65.8984 27.5772 66.2335 27.9124 66.6496 28.1666C67.0656 28.4208 67.5163 28.548 68.0017 28.548C68.5101 28.548 68.9724 28.4208 69.3884 28.1666C69.8044 27.9124 70.128 27.5772 70.3591 27.1612C70.6134 26.7221 70.7405 26.2367 70.7405 25.7051V7.50395H74.9008V25.1851C74.9008 26.4794 74.6119 27.6581 74.034 28.7213C73.4562 29.7845 72.6473 30.6281 71.6072 31.2521C70.5903 31.8762 69.3884 32.1882 68.0017 32.1882Z" fill="url(#paint0_linear_24_3170)"/>
<path d="M87.7851 31.7722C86.4446 31.7722 85.2427 31.4602 84.1796 30.8361C83.1164 30.189 82.2728 29.3338 81.6487 28.2706C81.0478 27.1843 80.7474 25.994 80.7474 24.6997C80.7474 23.6828 80.9785 22.7236 81.4407 21.8222C81.9261 20.8977 82.5964 20.1234 83.4515 19.4994C82.5964 18.8753 81.9377 18.1242 81.4754 17.2459C81.0131 16.3445 80.782 15.4085 80.782 14.4377C80.782 13.1434 81.0825 11.9762 81.6834 10.9362C82.3075 9.8961 83.1395 9.06405 84.1796 8.44001C85.2196 7.81597 86.3753 7.50395 87.6465 7.50395H97.4231V11.1789H88.0972C87.5193 11.1789 86.9878 11.3291 86.5024 11.6295C86.017 11.9069 85.6241 12.2883 85.3236 12.7736C85.0463 13.259 84.9076 13.8137 84.9076 14.4377C84.9076 14.9924 85.0579 15.5125 85.3583 15.9978C85.6588 16.4832 86.0517 16.8761 86.5371 17.1766C87.0224 17.4539 87.5656 17.5926 88.1665 17.5926H96.2097V21.2675H88.3745C87.6811 21.2675 87.0686 21.4293 86.5371 21.7529C86.0055 22.0764 85.5894 22.504 85.289 23.0356C85.0116 23.5441 84.8729 24.1103 84.8729 24.7344C84.8729 25.3353 85.0116 25.9016 85.289 26.4332C85.5894 26.9416 85.9939 27.3577 86.5024 27.6812C87.034 27.9817 87.6349 28.1319 88.3052 28.1319H97.4231V31.7722H87.7851Z" fill="url(#paint1_linear_24_3170)"/>
<path d="M103.157 31.7722V14.195C103.18 12.9239 103.48 11.7913 104.058 10.7975C104.659 9.78054 105.456 8.98316 106.45 8.40534C107.467 7.80441 108.611 7.50395 109.882 7.50395H118.55V11.1442H110.333C109.455 11.1442 108.727 11.4446 108.149 12.0456C107.594 12.6234 107.317 13.3399 107.317 14.195V18.6327H117.336V22.2729H107.317V31.7722H103.157Z" fill="url(#paint2_linear_24_3170)"/>
<path d="M136.369 31.7722C135.006 31.7722 133.815 31.4717 132.798 30.8708C131.781 30.2467 130.984 29.4147 130.406 28.3746C129.851 27.3346 129.574 26.1789 129.574 24.9077V11.1442H122.502V7.50395H140.772V11.1442H133.7V25.4278C133.7 26.1674 133.954 26.803 134.462 27.3346C134.971 27.8661 135.618 28.1319 136.404 28.1319H138.068V31.7722H136.369Z" fill="url(#paint3_linear_24_3170)"/>
<path d="M162.524 32.2229C161.392 32.2229 160.375 31.9571 159.474 31.4255C158.595 30.8939 157.89 30.1658 157.359 29.2413C156.85 28.2937 156.596 27.1959 156.596 25.9478V12.9816C156.596 12.1496 156.4 11.3984 156.007 10.7282C155.614 10.0579 155.094 9.53786 154.447 9.16806C153.799 8.77514 153.083 8.57869 152.297 8.57869C151.511 8.57869 150.783 8.77514 150.113 9.16806C149.466 9.53786 148.946 10.0579 148.553 10.7282C148.183 11.3984 147.998 12.1496 147.998 12.9816V31.7722H146.299V13.2937C146.299 12.0687 146.554 10.994 147.062 10.0694C147.571 9.12183 148.276 8.38223 149.177 7.85064C150.078 7.31905 151.118 7.05325 152.297 7.05325C153.453 7.05325 154.481 7.31905 155.383 7.85064C156.284 8.38223 156.989 9.12183 157.497 10.0694C158.029 10.994 158.295 12.0687 158.295 13.2937V26.2598C158.295 27.1381 158.491 27.9124 158.884 28.5826C159.277 29.2298 159.786 29.7498 160.41 30.1427C161.057 30.5125 161.762 30.6974 162.524 30.6974C163.264 30.6974 163.946 30.5125 164.57 30.1427C165.194 29.7498 165.691 29.2298 166.061 28.5826C166.431 27.9124 166.615 27.1381 166.615 26.2598V13.2937C166.615 12.0687 166.87 10.994 167.378 10.0694C167.91 9.12183 168.626 8.38223 169.528 7.85064C170.429 7.31905 171.469 7.05325 172.648 7.05325C173.803 7.05325 174.832 7.31905 175.733 7.85064C176.635 8.38223 177.34 9.12183 177.848 10.0694C178.357 10.994 178.611 12.0687 178.611 13.2937V31.7722H176.947V12.9816C176.947 12.1496 176.75 11.3984 176.357 10.7282C175.988 10.0579 175.479 9.53786 174.832 9.16806C174.185 8.77514 173.457 8.57869 172.648 8.57869C171.839 8.57869 171.099 8.77514 170.429 9.16806C169.782 9.53786 169.262 10.0579 168.869 10.7282C168.499 11.3984 168.314 12.1496 168.314 12.9816V25.9478C168.314 27.1959 168.06 28.2937 167.551 29.2413C167.066 30.1658 166.384 30.8939 165.506 31.4255C164.628 31.9571 163.634 32.2229 162.524 32.2229Z" fill="url(#paint4_linear_24_3170)"/>
<path d="M191.778 31.7722C190.437 31.7722 189.282 31.4602 188.311 30.8361C187.363 30.2121 186.635 29.4031 186.127 28.4093C185.618 27.4154 185.364 26.3754 185.364 25.2891C185.364 24.041 185.676 22.8738 186.3 21.7875C186.947 20.7012 187.907 19.927 189.178 19.4647C187.93 18.8869 187.005 18.1011 186.404 17.1072C185.826 16.1134 185.538 15.0618 185.538 13.9524C185.538 12.7736 185.815 11.6989 186.37 10.7282C186.924 9.75743 187.676 8.98316 188.623 8.40534C189.571 7.82753 190.622 7.53862 191.778 7.53862H201V9.02938H191.986C191.038 9.02938 190.206 9.24895 189.49 9.68809C188.796 10.1272 188.242 10.7282 187.826 11.4909C187.433 12.2305 187.236 13.051 187.236 13.9524C187.236 14.8075 187.444 15.5934 187.86 16.3098C188.3 17.0263 188.889 17.6042 189.629 18.0433C190.368 18.4593 191.2 18.6673 192.125 18.6673H199.648V20.1581H192.367C191.212 20.1581 190.241 20.4123 189.455 20.9208C188.669 21.4062 188.068 22.0418 187.652 22.8276C187.259 23.6134 187.063 24.4339 187.063 25.2891C187.063 26.1443 187.248 26.9532 187.618 27.7159C188.011 28.4555 188.577 29.068 189.316 29.5534C190.079 30.0156 191.004 30.2467 192.09 30.2467H201V31.7722H191.778Z" fill="url(#paint5_linear_24_3170)"/>
<path fill-rule="evenodd" clip-rule="evenodd" d="M13.1139 4.06532H26.2279C31.2253 4.06532 35.2765 8.11653 35.2765 13.1139V26.2279C35.2765 31.2253 31.2253 35.2765 26.2279 35.2765H13.1139C8.11653 35.2765 4.06532 31.2253 4.06532 26.2279V13.1139C4.06532 8.11653 8.11653 4.06532 13.1139 4.06532ZM0 13.1139C0 5.87131 5.87132 0 13.1139 0H26.2279C33.4705 0 39.3419 5.87132 39.3419 13.1139V26.2279C39.3419 33.4705 33.4705 39.3419 26.2279 39.3419H13.1139C5.87131 39.3419 0 33.4705 0 26.2279V13.1139ZM17.4026 23.8296V23.7953L17.4029 23.788V20.997L17.4004 20.9977V15.8909H17.3998C17.3991 12.9667 15.0283 10.5963 12.1038 10.5963C12.029 10.5963 11.9545 10.5979 11.8804 10.6009C12.9481 9.65606 14.352 9.0825 15.8899 9.0825C17.9534 9.0825 19.7758 10.1152 20.8684 11.6919L20.8745 11.6958C21.414 12.4761 21.7749 13.3894 21.8981 14.3765H21.9421V15.0642C21.9423 15.0878 21.9425 15.1114 21.9425 15.1351C21.9425 15.1508 21.9424 15.1665 21.9423 15.1822C21.9422 15.1902 21.9422 15.1981 21.9421 15.206V18.1604L21.944 18.1599V23.1259C21.9428 23.1724 21.9422 23.2191 21.9422 23.2659C21.9422 26.1908 24.3133 28.5619 27.2382 28.5619C27.3131 28.5619 27.3876 28.5603 27.4617 28.5572C26.394 29.5021 24.99 30.0757 23.4522 30.0757C20.9259 30.0757 18.7612 28.528 17.8544 26.3291L17.8526 26.3267C17.5871 25.6826 17.4296 24.9825 17.4026 24.2492V24.2166C17.4006 24.1523 17.3996 24.0878 17.3996 24.0231C17.3996 23.9583 17.4006 23.8938 17.4026 23.8296ZM27.2381 9.83669C25.9846 9.83669 24.9684 10.8529 24.9684 12.1064V23.455C24.9684 24.7086 25.9846 25.7247 27.2381 25.7247C28.4916 25.7247 29.5078 24.7086 29.5078 23.455V12.1064C29.5078 10.8529 28.4916 9.83669 27.2381 9.83669ZM12.1058 13.6185C10.8523 13.6185 9.83611 14.6347 9.83611 15.8882V27.2368C9.83611 28.4904 10.8523 29.5066 12.1058 29.5066C13.3594 29.5066 14.3755 28.4904 14.3755 27.2368V15.8882C14.3755 14.6347 13.3594 13.6185 12.1058 13.6185Z" fill="url(#paint6_linear_24_3170)"/>
<defs>
<linearGradient id="paint0_linear_24_3170" x1="107.423" y1="20.7984" x2="108.118" y2="4.69326" gradientUnits="userSpaceOnUse">
<stop stop-color="#141316"/>
<stop offset="1" stop-color="#303040"/>
</linearGradient>
<linearGradient id="paint1_linear_24_3170" x1="107.423" y1="20.7984" x2="108.118" y2="4.69326" gradientUnits="userSpaceOnUse">
<stop stop-color="#141316"/>
<stop offset="1" stop-color="#303040"/>
</linearGradient>
<linearGradient id="paint2_linear_24_3170" x1="107.423" y1="20.7984" x2="108.118" y2="4.69326" gradientUnits="userSpaceOnUse">
<stop stop-color="#141316"/>
<stop offset="1" stop-color="#303040"/>
</linearGradient>
<linearGradient id="paint3_linear_24_3170" x1="107.423" y1="20.7984" x2="108.118" y2="4.69326" gradientUnits="userSpaceOnUse">
<stop stop-color="#141316"/>
<stop offset="1" stop-color="#303040"/>
</linearGradient>
<linearGradient id="paint4_linear_24_3170" x1="107.423" y1="20.7984" x2="108.118" y2="4.69326" gradientUnits="userSpaceOnUse">
<stop stop-color="#141316"/>
<stop offset="1" stop-color="#303040"/>
</linearGradient>
<linearGradient id="paint5_linear_24_3170" x1="107.423" y1="20.7984" x2="108.118" y2="4.69326" gradientUnits="userSpaceOnUse">
<stop stop-color="#141316"/>
<stop offset="1" stop-color="#303040"/>
</linearGradient>
<linearGradient id="paint6_linear_24_3170" x1="14.728" y1="21.4846" x2="20.8011" y2="-2.17706" gradientUnits="userSpaceOnUse">
<stop stop-color="#141316"/>
<stop offset="1" stop-color="#303040"/>
</linearGradient>
</defs>
</svg>
