<svg width="33" height="33" viewBox="0 0 33 33" fill="none" xmlns="http://www.w3.org/2000/svg">
<path d="M23.7188 13.4062C23.7188 12.8592 23.5015 12.3346 23.1147 11.9478C22.7279 11.561 22.2033 11.3438 21.6562 11.3438C21.1092 11.3438 20.5846 11.561 20.1978 11.9478C19.811 12.3346 19.5938 12.8592 19.5938 13.4062C19.5938 13.9533 19.811 14.4779 20.1978 14.8647C20.5846 15.2515 21.1092 15.4688 21.6562 15.4688C22.2033 15.4688 22.7279 15.2515 23.1147 14.8647C23.5015 14.4779 23.7188 13.9533 23.7188 13.4062ZM13.4062 13.4062C13.4062 12.8592 13.189 12.3346 12.8022 11.9478C12.4154 11.561 11.8908 11.3438 11.3438 11.3438C10.7967 11.3438 10.2721 11.561 9.88534 11.9478C9.49855 12.3346 9.28125 12.8592 9.28125 13.4062C9.28125 13.9533 9.49855 14.4779 9.88534 14.8647C10.2721 15.2515 10.7967 15.4688 11.3438 15.4688C11.8908 15.4688 12.4154 15.2515 12.8022 14.8647C13.189 14.4779 13.4062 13.9533 13.4062 13.4062ZM13.3526 22.7968C13.2314 22.7349 13.0992 22.6976 12.9635 22.687C12.8278 22.6765 12.6914 22.6929 12.562 22.7353C12.4327 22.7777 12.3131 22.8453 12.21 22.9342C12.1069 23.0231 12.0225 23.1315 11.9615 23.2532C11.9005 23.3748 11.8643 23.5074 11.8548 23.6431C11.8452 23.7789 11.8627 23.9152 11.9061 24.0442C11.9496 24.1732 12.0181 24.2923 12.1078 24.3947C12.1974 24.497 12.3065 24.5807 12.4286 24.6407C13.6331 25.2429 15.0872 25.5234 16.5 25.5234C17.9128 25.5234 19.3669 25.2429 20.5714 24.6407C20.6935 24.5807 20.8026 24.497 20.8922 24.3947C20.9819 24.2923 21.0504 24.1732 21.0939 24.0442C21.1373 23.9152 21.1548 23.7789 21.1452 23.6431C21.1357 23.5074 21.0995 23.3748 21.0385 23.2532C20.9775 23.1315 20.8931 23.0231 20.79 22.9342C20.6869 22.8453 20.5673 22.7777 20.438 22.7353C20.3086 22.6929 20.1722 22.6765 20.0365 22.687C19.9008 22.6976 19.7686 22.7349 19.6474 22.7968C18.7894 23.2258 17.6653 23.4609 16.5 23.4609C15.3347 23.4609 14.2106 23.2258 13.3526 22.7968ZM33 16.5C33 12.1239 31.2616 7.92709 28.1673 4.83274C25.0729 1.73839 20.8761 0 16.5 0C12.1239 0 7.92709 1.73839 4.83274 4.83274C1.73839 7.92709 0 12.1239 0 16.5C0 20.8761 1.73839 25.0729 4.83274 28.1673C7.92709 31.2616 12.1239 33 16.5 33C20.8761 33 25.0729 31.2616 28.1673 28.1673C31.2616 25.0729 33 20.8761 33 16.5ZM2.0625 16.5C2.0625 14.604 2.43594 12.7266 3.16149 10.975C3.88704 9.22337 4.9505 7.63179 6.29115 6.29115C7.63179 4.9505 9.22337 3.88704 10.975 3.16149C12.7266 2.43594 14.604 2.0625 16.5 2.0625C18.396 2.0625 20.2734 2.43594 22.025 3.16149C23.7766 3.88704 25.3682 4.9505 26.7089 6.29115C28.0495 7.63179 29.113 9.22337 29.8385 10.975C30.5641 12.7266 30.9375 14.604 30.9375 16.5C30.9375 20.3291 29.4164 24.0013 26.7089 26.7089C24.0013 29.4164 20.3291 30.9375 16.5 30.9375C12.6709 30.9375 8.9987 29.4164 6.29115 26.7089C3.58359 24.0013 2.0625 20.3291 2.0625 16.5Z" fill="white"/>
</svg>
