<svg width="67" height="71" viewBox="0 0 67 71" fill="none" xmlns="http://www.w3.org/2000/svg">
<path d="M45.1453 26.4878H27.6453C26.9578 26.4878 26.3953 26.9158 26.3953 27.4448V45.9794C26.3953 46.5084 26.8015 46.6431 27.3078 46.2728L35.889 40.0112C36.089 39.8669 36.4203 39.8669 36.6203 40.0064L45.4765 46.2872C45.9828 46.6479 46.3953 46.5084 46.3953 45.9794V27.4448C46.3953 26.9158 45.839 26.4878 45.1453 26.4878Z" fill="white"/>
<path d="M24.3953 17.4878H48.3953V15.4878H24.3953V17.4878ZM55.3953 24.4878V48.4878H57.3953V24.4878H55.3953ZM48.3953 55.4878H24.3953V57.4878H48.3953V55.4878ZM17.3953 48.4878V24.4878H15.3953V48.4878H17.3953ZM24.3953 55.4878C20.5293 55.4878 17.3953 52.3538 17.3953 48.4878H15.3953C15.3953 53.4584 19.4247 57.4878 24.3953 57.4878V55.4878ZM55.3953 48.4878C55.3953 52.3538 52.2613 55.4878 48.3953 55.4878V57.4878C53.3658 57.4878 57.3953 53.4584 57.3953 48.4878H55.3953ZM48.3953 17.4878C52.2613 17.4878 55.3953 20.6218 55.3953 24.4878H57.3953C57.3953 19.5172 53.3658 15.4878 48.3953 15.4878V17.4878ZM24.3953 15.4878C19.4247 15.4878 15.3953 19.5172 15.3953 24.4878H17.3953C17.3953 20.6218 20.5293 17.4878 24.3953 17.4878V15.4878Z" fill="white"/>
</svg>
