<svg width="14" height="22" viewBox="0 0 14 22" fill="none" xmlns="http://www.w3.org/2000/svg">
<g clip-path="url(#clip0_3_4404)">
<path d="M6.94221 14.3549C8.77565 14.3549 10.262 12.8386 10.262 10.9682V3.38671C10.262 1.5163 8.77565 0 6.94221 0C5.10877 0 3.62244 1.5163 3.62244 3.38671V10.9773C3.62244 12.8386 5.10877 14.3549 6.94221 14.3549ZM4.51246 3.38671C4.51246 2.01568 5.60718 0.907965 6.94221 0.907965C8.27724 0.907965 9.37196 2.01568 9.37196 3.38671V10.9773C9.37196 12.3392 8.28614 13.456 6.94221 13.456C5.60718 13.456 4.51246 12.3483 4.51246 10.9773V3.38671Z" fill="white"/>
<path d="M13.555 8.56201C13.3058 8.56201 13.11 8.76176 13.11 9.01599V10.8864C13.11 14.3094 10.4488 17.1604 7.09345 17.2149C3.68468 17.2603 0.890019 14.4456 0.890019 10.9772V9.01599C0.890019 8.76176 0.694215 8.56201 0.44501 8.56201C0.195804 8.56201 0 8.76176 0 9.01599V10.8864C0 14.8179 3.07057 18.0775 6.92435 18.1138C8.89129 18.132 10.6713 17.333 11.953 16.0255C13.2168 14.7362 14 12.9475 14 10.9772V9.01599C14 8.76176 13.7953 8.56201 13.555 8.56201Z" fill="white"/>
<path d="M10.6891 21.0921H7.44054V18.123H6.55053V21.0921H3.21295C2.96375 21.0921 2.76794 21.2918 2.76794 21.5461C2.76794 21.8003 2.96375 22.0001 3.21295 22.0001H10.6891C10.9383 22.0001 11.1341 21.8003 11.1341 21.5461C11.1341 21.2918 10.9383 21.0921 10.6891 21.0921Z" fill="white"/>
<path d="M7.11646 13.6399C8.66771 13.6399 9.91993 12.1659 9.91993 10.3399V3.73994C9.91993 1.91394 8.66771 0.439941 7.11646 0.439941C5.56521 0.439941 4.31299 1.91394 4.31299 3.73994V10.3399C4.31299 12.1659 5.56521 13.6399 7.11646 13.6399Z" fill="white"/>
</g>
<defs>
<clipPath id="clip0_3_4404">
<rect width="14" height="22" fill="white"/>
</clipPath>
</defs>
</svg>

